<svg enable-background="new 0 0 268.6 92.4" version="1.1" viewBox="0 0 268.6 92.4" xml:space="preserve" xmlns="http://www.w3.org/2000/svg">
		<path d="m78 28.4c5.9 2 13.4 1.4 18.6-2.4 1.6-1.2 2.3-3.1 1.4-4.9-0.7-1.6-2.3-2.8-3.6-3.8-2.5-1.9-5.5-3.2-8.7-3.3-3-0.1-6 0.9-8.3 2.9-2.4 2.1-3.5 5.4-3.9 8.5-0.9 6 0.5 12.4 4.2 17.3 2.3 3 5.3 5.7 9.3 4.7 3.8-1 6.8-4.6 9.6-7.1 2.4-2.2-1.1-5.7-3.5-3.5-1.6 1.4-3.1 2.9-4.8 4.3-0.9 0.8-2.4 2-3.7 1.5s-2.5-2.2-3.2-3.3c-0.9-1.4-1.7-2.8-2.2-4.4-1.7-5.1-1.9-15 5.2-15.8 1.7-0.2 3.4 0.2 4.9 1 0.8 0.4 1.7 0.9 2.4 1.5 0.4 0.3 0.7 0.6 1.1 0.9l0.6 0.6c0.3 0.4 0 0.2 0 0.1 0.1-0.4 0.2-0.8 0.3-1.3-0.3 0.7 0.3-0.1 0 0.1s-0.6 0.3-0.8 0.5c-0.5 0.3-1.1 0.6-1.6 0.8-1.3 0.5-2.6 0.9-4 1.1-2.7 0.4-5.3 0.1-7.9-0.8-3.1-1.1-4.5 3.7-1.4 4.8z"></path>
		<path d="m118.5 14.1c-3.4-1.9-7.7-1.8-11.1 0.1-3.9 2.2-5.3 6.3-6 10.5s-0.2 9.1 4.1 11.1c3.9 1.9 8.6 0.6 11.3-2.7 3.7-4.4 3.6-10.2 3.1-15.6-1.6 0.2-3.3 0.4-4.9 0.7 1.4 10 2.8 20.5-0.4 30.4-2.6 7.9-8.9 15.5-17.7 16.3-4.1 0.4-8.8-0.9-10.9-4.7-1.6-2.8-5.9-0.3-4.3 2.5 5.3 9.5 18.7 8.5 26.5 3.1 9.1-6.3 12.9-17.2 13.3-27.9 0.3-7-0.7-14-1.6-21-0.4-2.8-5.2-2.1-4.9 0.7 0.4 4 1 9-1.9 12.4-1.6 1.9-5.5 2.9-6.6 0-0.6-1.5-0.2-3.4 0.1-5 0.4-1.7 0.7-3.6 1.8-5 1.8-2.3 5.3-2.9 7.7-1.5 2.7 1.5 5.2-2.8 2.4-4.4z"></path>
		<path d="m147.1 17.1c-1.7-1.3-3.8-1.8-5.8-2.1s-4.4-0.6-6.4 0.2c-4.3 1.9-4.9 7.7-5.4 11.7-0.3 2.2-0.1 4.4 1 6.4 1 1.7 2.7 3.5 4.4 4.5 2.3 1.4 4.6 0.7 6.9-0.4 1.9-0.9 3.6-2 4.7-3.7 1.4-2.1 1.5-4.9 1.5-7.3-0.1-2.7-0.6-5.3-1.5-7.8-0.4-1.2-1.4-2-2.7-1.8-1.2 0.2-2.2 1.2-2.2 2.5 0.1 3.1 0.7 6.3 1.7 9.2 1 2.8 2.3 5.9 4.4 8.1 2.1 2.3 5.4 3.2 8.1 1.3 2.8-2 3.1-5.5 2.8-8.7-0.1-1.3-1.1-2.5-2.5-2.5-1.3 0-2.6 1.1-2.5 2.5 0.1 1.1 0.7 4.3-0.9 4.8-1 0.3-2.2-1.7-2.6-2.5-2.2-3.7-3.4-7.9-3.6-12.2-1.6 0.2-3.3 0.4-4.9 0.7 0.7 1.9 1.2 3.9 1.3 6 0.1 1.6 0.3 4-0.9 5.4-0.4 0.5-1.1 0.9-1.7 1.2-0.7 0.4-1.5 1-2.3 1.1-1.1 0.2-2.5-1.6-3.1-2.5-1-1.4-0.7-3.2-0.5-4.7 0.3-1.9 0.5-3.9 1.4-5.6 0.2-0.4 0.5-0.9 1-1.1 0.7-0.3 2 0 2.7 0.1 1.8 0.1 3.4 0.5 4.9 1.6 1.1 0.8 2.8 0.2 3.4-0.9 0.9-1.4 0.4-2.7-0.7-3.5z"></path>
		<path d="m162.9 12.7c-0.3 9.3-0.5 18.7 0.4 28 0.1 1.3 1.1 2.5 2.5 2.5 1.3 0 2.5-1.1 2.5-2.5-0.1-5.3 0.1-10.5 0.5-15.8 0.1-1.3 0.1-4 1.6-4.6 0.7-0.3 1.5 0.3 2.1 0.6 0.5 0.3 1.5 0.8 1.9 1.4 0.4 0.7 0 1.9-0.1 2.6-0.2 1.2-0.2 2.5-0.3 3.7 0 2.1-0.1 4.5 0.6 6.5 0.7 2.1 2.2 3.9 4.4 4.3 2.4 0.5 4.7-0.7 6.7-2.1 1.1-0.8 1.6-2.2 0.9-3.4-0.6-1.1-2.3-1.7-3.4-0.9-0.7 0.5-2.4 1.9-3.2 1.5-0.9-0.4-0.9-2.5-0.9-3.4-0.1-2 0-4.1 0.2-6.1s0.5-3.9-0.8-5.7c-1-1.4-2.6-2.5-4.2-3.3-1.9-1-3.9-1.3-5.9-0.5-4 1.8-4.4 6.3-4.7 10.1-0.4 4.9-0.5 9.9-0.4 14.8h5c-0.9-9.3-0.6-18.6-0.4-28 0.1-2.9-4.9-2.9-5 0.3z"></path>
		<path d="m196 27.4c3.4 0.9 6.8 1.4 10.3 1.6 2.9 0.1 6.3-0.5 7.4-3.6 1.2-3.5-1.7-6.2-4.6-7.6-1.6-0.7-3.2-1.4-4.9-1.8-1.6-0.4-3.5-0.9-5.2-0.8-3 0.2-5.3 3.2-6.6 5.7s-2 5.3-2 8.1c-0.1 5.5 2.1 12.5 7.4 15 6.5 3.1 15.8 3.1 20.1-3.5 1.8-2.7-2.5-5.2-4.3-2.5-2.5 3.7-7.8 3.3-11.5 2.2-1.9-0.5-3.4-1.3-4.5-3.1-1-1.6-1.6-3.5-2-5.4-0.6-3.5 0.1-7.4 2.3-10.2 0.3-0.4 0.9-1.3 1.4-1.4 0.3-0.1 1 0.1 1.4 0.2 0.7 0.1 1.4 0.3 2 0.4 1.1 0.3 2.3 0.7 3.4 1.1 0.8 0.4 2 0.8 2.6 1.5 0.2 0.3 0.2 0.6 0.3 0.5 0.2-0.3 0 0-0.2 0-1 0.1-1.9 0.2-2.9 0.2-2.9-0.2-5.7-0.7-8.5-1.4-3.2-0.9-4.5 4-1.4 4.8z"></path>
		<path d="m145.8 55.7c-2.6-1.8-5.3-3.2-8.2-4.4-2.7-1.1-5.7-2.2-8.7-2.3-6-0.1-10.4 6.4-12.2 11.4-0.9 2.7-1.5 6-0.8 8.7 0.8 2.9 3.1 4.8 5.8 5.8 4.7 1.8 10.1 1 14.5-1.1 5-2.4 8.9-7 10.2-12.4-1.6-0.2-3.3-0.4-4.9-0.7-0.4 9.7-2.8 19.1-5.1 28.4-0.8 3.1 4 4.4 4.8 1.3 2.5-9.8 5-19.6 5.3-29.7 0.1-2.8-4.2-3.4-4.9-0.7-1.7 6.8-9 11.8-16 10.7-1.5-0.2-3.3-0.7-4.3-1.9-1.3-1.5-0.6-4.2-0.2-5.9 0.6-2.1 1.5-4.1 2.9-5.8 1.1-1.4 2.6-3.1 4.5-3.3 1.2-0.1 2.5 0.3 3.7 0.7 1.3 0.4 2.6 0.8 3.9 1.3 2.5 1 5 2.4 7.2 4 1.1 0.8 2.8 0.2 3.4-0.9 0.7-1 0.2-2.4-0.9-3.2z"></path>
		<path d="m160.5 61.9c-3 1-6.6-1.4-6.9-4.7-0.4-3.4 2.7-6.6 5.9-7.5 4.2-1.1 6.4 3 6.6 6.6 0.2 4.9-2.1 9.4-4.6 13.4-3.4 5.4-7.2 10.6-10.9 15.9-0.8 1.1-0.2 2.8 0.9 3.4 1.2 0.7 2.7 0.2 3.4-0.9 3.9-5.7 8.1-11.3 11.7-17.2 3.2-5.3 5.7-11.8 4.1-18-0.7-2.7-2.2-5.1-4.4-6.8-2.5-1.9-5.8-2.1-8.7-1.1-5.1 1.7-9.4 6.8-8.9 12.4 0.6 6.1 7.1 11.3 13.2 9.2 3-0.9 1.7-5.7-1.4-4.7z"></path>
		<path d="m187.1 59.3c-3.1 0.2-6.3-1.5-6.9-4.8-0.5-3 1.6-5.7 4.7-5.7 3 0.1 4.4 3.4 4.7 5.9 0.2 1.4 0.4 3.4-0.2 4.7-0.6 1.2-2.3 1.6-3.5 1.9-4 1.1-8.2 2-11.2 5.2-2.9 3.1-3.8 7.4-2.1 11.3 1.6 3.5 4.8 6.1 8.1 7.9 1.9 1.1 4.1 2.2 6.4 2 2.2-0.2 4.1-1.1 5.8-2.5 3.5-3.1 4.8-9 4.5-13.5-0.3-4.7-3.6-9.7-8.8-9.3-1.3 0.1-2.5 1.1-2.5 2.5 0 1.3 1.1 2.6 2.5 2.5 4-0.3 4.1 5 3.6 7.7-0.5 2.8-1.9 8-5.7 7.6-1.7-0.2-3.5-1.5-4.9-2.4s-2.7-2.1-3.7-3.5c-1.9-2.8-1.1-5.8 1.5-7.8 3.2-2.5 7.5-2.3 11.1-4.1 4-1.9 4.8-6.2 4.3-10.3-0.4-3.7-1.8-7.4-5-9.5s-7.5-1.8-10.6 0.4c-3.9 2.8-4.9 8.1-2.9 12.4 1.9 4.1 6.5 6.5 10.9 6.3 3.1-0.1 3.1-5.1-0.1-4.9z"></path>
		<path d="m210 65.6c-3.4 0.8-6.1-2.2-7-5.2-0.5-1.7-0.8-3.8-0.4-5.5 0.3-1.6 1.8-2 3.2-2.5 1.9-0.6 3.9-1.3 5.8-0.4 1.6 0.8 2.9 2.2 3.7 3.7 1.6 2.8 1.8 6.6-0.8 8.9-1.2 1.1-2.7 1.3-4.2 1.5-2 0.2-4 0.5-5.7 1.7-3.3 2.3-3.9 7.1-3.5 10.8 0.5 4.7 4.5 6.4 8.6 6.9 2.3 0.3 4.6 0.4 6.9 0.3 2.3 0 4.9 0 7.2-0.6 5.3-1.4 3.3-9.5 1.3-12.8-2.5-4.1-6.9-6.6-11.5-7.7-3.1-0.7-4.5 4.1-1.3 4.8 3.7 0.9 7.3 2.8 9 6.3 0.4 0.8 0.7 1.6 0.8 2.4 0.1 0.4 0.1 0.9 0.1 1.3 0 0.1-0.2 1.3-0.1 1.3-0.3-0.3 1.5-0.4 0.3-0.4-0.1 0-0.3 0-0.4 0.1-0.5 0.1-1.1 0.1-1.7 0.2-1.3 0.1-2.5 0.2-3.8 0.2-2.2 0-4.5 0-6.7-0.3-1.2-0.2-3-0.4-3.5-1.6-0.3-0.7-0.2-1.6-0.1-2.3 0-0.9 0.1-1.8 0.3-2.6 0.4-1.6 1.2-2.3 2.8-2.6 1.8-0.4 3.7-0.3 5.4-1 2-0.7 3.6-2 4.8-3.7 2.4-3.3 2.7-7.7 1.2-11.4-1.5-3.9-4.9-7.6-9.1-8.4-2.5-0.5-4.8 0.1-7.1 0.9-1.9 0.6-3.9 1.4-5.2 3.1-1.6 2-1.8 4.6-1.6 7 0.2 2.5 0.7 4.9 1.9 7.1 2.3 4.2 7.1 6.7 11.9 5.6 2.9-1 1.6-5.8-1.5-5.1z"></path>
		<path d="m227.4 13.3c3.6 0.3 7.3 0.6 10.9 0.9 1.8 0.1 3.6 0.3 5.4 0.4 0.5 0 0.9 0.1 1.4 0.1h0.6 0.1c-0.5-0.2-0.8-0.6-0.9-1.1v0.2s-0.2 0.7-0.2 0.9c-0.8 2.8-2.7 5.4-4.4 7.7-0.6 0.8-1.7 2-2.4 2.5-0.2 0.2-0.5 0.3-0.7 0.4-0.3 0.2-0.4 0.2-0.5 0.2-0.7 0.2-0.8 0.2-1.6 0.1-1.3-0.2-2.5 1.3-2.5 2.5 0 1.5 1.2 2.3 2.5 2.5 2.9 0.4 5.6-1.3 7.6-3.3 2-2.1 3.7-4.6 5.1-7.1 1.4-2.4 3.5-6.6 1.4-9.2-1.2-1.5-3-1.4-4.7-1.6-1.7-0.1-3.5-0.3-5.2-0.4-3.9-0.3-7.8-0.6-11.7-1-1.3-0.1-2.5 1.2-2.5 2.5-0.2 1.8 1 2.7 2.3 2.8z"></path>
		<path d="m248.1 4.2c0 3.5 0.6 7 1.9 10.3 0.2 0.6 0.6 1.1 1.1 1.5 0.5 0.3 1.3 0.4 1.9 0.3 1.2-0.4 2.2-1.8 1.7-3.1-0.6-1.5-1-3.1-1.3-4.7-0.1-0.4-0.1-0.8-0.2-1.2v0.2-0.4c0-0.2 0-0.4-0.1-0.5-0.1-0.8-0.1-1.7-0.1-2.5 0-1.3-1.2-2.6-2.5-2.5-1.2 0.2-2.4 1.2-2.4 2.6z"></path>
		<path d="m256.4 2.5c-0.1 1.6-0.3 3.2-0.4 4.8-0.1 0.6 0.3 1.4 0.7 1.8s1.1 0.8 1.8 0.7c0.6 0 1.3-0.2 1.8-0.7 0.1-0.2 0.3-0.3 0.4-0.5 0.2-0.4 0.3-0.8 0.3-1.3 0.1-1.6 0.3-3.2 0.4-4.8 0.1-0.6-0.3-1.4-0.7-1.8s-1.1-0.8-1.8-0.7c-0.6 0-1.3 0.2-1.8 0.7-0.1 0.2-0.3 0.3-0.4 0.5-0.1 0.4-0.3 0.9-0.3 1.3z"></path>
		<path d="m237.7 31.8c-5.1-1.1-10.9-1.6-14.2 3.2-1.6 2.2-2.2 5.2-2.6 7.8-0.4 3-0.2 6 0.5 9 0.2 0.8 0.9 1.6 1.7 1.7 4.8 1.1 9.8 1.5 14.7 1.2 2.4-0.2 4.8-0.5 7.2-1 2.1-0.4 4.2-1.1 5.3-3.2 2.1-3.9 0.3-8.8-2.4-11.9-3-3.4-7.4-5-11.6-6.4-3.1-1-4.4 3.8-1.3 4.8s6.3 2.1 8.7 4.4c1 1 1.9 2.3 2.3 3.7 0.2 0.8 0.5 2.6-0.2 3.2-0.4 0.3-1.2 0.3-1.6 0.4-0.9 0.2-1.8 0.4-2.8 0.5-1.8 0.3-3.6 0.4-5.4 0.5-3.9 0.1-7.7-0.2-11.5-1.1l1.7 1.7c-0.9-3.9-0.9-8.7 1.1-12.3 1.8-3.2 6.1-2.2 9-1.6 3.2 0.9 4.5-3.9 1.4-4.6z"></path>
		<path d="m240.7 55.7c-1.9 2.4-4 4.5-6.4 6.3 0.2-0.1 0.3-0.3 0.5-0.4-0.3 0.2-0.6 0.5-0.9 0.7-0.5 0.4-1 0.8-1.1 1.5-0.2 0.6-0.1 1.4 0.3 1.9 0.3 0.5 0.9 1 1.5 1.1s1.4 0.1 1.9-0.3c2.9-2.1 5.6-4.6 7.8-7.4 0.4-0.5 0.7-1.1 0.7-1.8 0-0.6-0.3-1.3-0.7-1.8-0.5-0.4-1.1-0.8-1.8-0.7-0.6 0.2-1.4 0.4-1.8 0.9z"></path>
		<path d="m242.8 61.9c1 0.1 2.1 0.2 3.1 0.2 0.5 0 1 0.1 1.5 0.1 0.2 0 0.5 0 0.7 0.1h0.3l-0.9-0.9c0-0.4-0.1-0.5-0.1-0.2v0.3c0 0.3-0.1 0.6-0.1 0.9-0.1 0.5-0.2 1-0.3 1.4-0.2 1.2-0.6 2.3-1 3.4-0.8 2.2-2 4.2-3.3 6.1-2.6 3.6-6.4 6.5-10.6 8-1.3 0.5-2.1 1.7-1.7 3.1 0.3 1.2 1.8 2.2 3.1 1.7 6.6-2.4 12.2-7.2 15.5-13.5 1.7-3.1 2.8-6.4 3.2-9.9 0.3-2.1 0.2-4.5-2.2-5.2-1-0.3-2.3-0.3-3.3-0.4l-3.9-0.3c-1.3-0.1-2.5 1.2-2.5 2.5 0 1.5 1.1 2.5 2.5 2.6z"></path>
		<path d="m251.4 58.9c1.4 0.7 2.8 1.5 4 2.5-0.2-0.1-0.3-0.3-0.5-0.4l1.8 1.5c0.5 0.4 1.1 0.7 1.8 0.7 0.6 0 1.3-0.3 1.8-0.7 0.4-0.5 0.8-1.1 0.7-1.8 0-0.7-0.2-1.3-0.7-1.8-1.9-1.8-4-3.3-6.3-4.4-0.6-0.3-1.3-0.4-1.9-0.3-0.6 0.2-1.2 0.6-1.5 1.1-0.3 0.6-0.5 1.3-0.3 1.9 0.1 0.8 0.5 1.4 1.1 1.7z"></path>
		<path d="m258.5 55c1.5 0.2 2.9 0.6 4.2 1.2l-0.6-0.3c0.9 0.4 1.8 0.9 2.7 1.4 1.1 0.7 2.8 0.3 3.4-0.9 0.7-1.2 0.3-2.7-0.9-3.4-2.3-1.5-4.9-2.5-7.5-2.9-0.7-0.1-1.3-0.1-1.9 0.3-0.5 0.3-1 0.9-1.1 1.5s-0.1 1.4 0.3 1.9c0.2 0.5 0.8 1.1 1.4 1.2z"></path>
		<path d="m5 32.9c0.2-5.6 0.3-12.9 5.3-16.5 1.9-1.4 4.4-2.2 6.6-1.2 1.8 0.8 3 2.6 3.7 4.5 0.8 2.4 1.2 4.9 1.3 7.3 0.1 3.5 0 6.9-0.2 10.4-0.4 7.1-1.5 14.1-3.2 21-1.9 7.6-4.5 15.1-7.9 22.2 1.5 0.6 3 1.3 4.6 1.9 1.6-9.7 3.6-19.3 5.9-28.8 2.3-9.4 4.6-18.9 7.8-28 1-2.8 3.3-7.5 7.1-6.4 2.5 0.8 3.4 4.5 3.8 7 0.7 4.4 0.9 9 1.1 13.4 0.2 4.9 0.3 9.9 0.2 14.8-0.3 10.9-1.4 21.8-3.3 32.6 1.6 0.2 3.3 0.4 4.9 0.7-1.2-12.8-1.4-25.7-0.5-38.5 0.4-6 0.8-12.1 2-18 0.7-3.5 2.1-8.6 6.4-8.6 5.1 0 7.8 5.3 9.2 9.4 1.8 5.1 2.6 10.5 3.6 15.8 1.8 10.1 4.4 20.7 12.5 27.8 8.2 7.1 20 10 30.5 6.8 3.1-0.9 1.8-5.8-1.3-4.8-8.7 2.7-18.7 0.5-25.6-5.5-8.2-7.1-9.9-18.1-11.7-28.2-1.7-9.5-4.2-25.5-16.6-26.2-5.5-0.3-9.3 4-10.9 8.8-0.8 2.3-1.1 4.7-1.5 7.1-0.4 3.3-0.8 6.6-1.1 9.9-1.4 14.8-1.4 29.6 0 44.4 0.1 1.2 0.9 2.3 2.2 2.5 1.1 0.1 2.5-0.6 2.7-1.8 1.9-10.6 3.1-21.1 3.4-31.7 0.4-10.4 0.2-21-1.3-31.3-0.5-3.7-1.8-7.7-5-10-3.8-2.8-9-1.4-12 1.8-3.4 3.6-4.5 8.9-5.8 13.6-1.5 5-2.9 10.1-4.2 15.2-2.9 11.5-5.4 23.2-7.4 34.9-0.2 1.2 0.2 2.5 1.4 2.9 1.1 0.4 2.6 0.1 3.1-1 6.8-14.4 10.9-30 11.8-45.9 0.4-6.7 0.9-14.2-2-20.5-1.3-2.8-3.5-5.1-6.4-6.3-3.1-1.2-6.7-0.6-9.6 1-7.5 4.3-8.4 13.6-8.6 21.5-0.1 3.3 4.9 3.3 5 0z"></path>
</svg>